<svg xmlns="http://www.w3.org/2000/svg" width="6" height="6" viewBox="0 0 6 6" fill="none">
  <path fill-rule="evenodd" clip-rule="evenodd" d="M2.13845 2.99719L0.149681 5.0805C-0.0502214 5.2899 -0.0450957 5.63354 0.149681 5.84295C0.349583 6.05235 0.672502 6.05235 0.872405 5.84295L3 3.61421L5.1276 5.84295C5.3275 6.05235 5.65042 6.05235 5.85032 5.84295C6.0451 5.63354 6.05022 5.2899 5.85032 5.0805L3.86155 2.99719L5.85032 0.913876C5.89777 0.864165 5.93542 0.80515 5.9611 0.7402C5.98678 0.67525 6 0.605638 6 0.535336C6 0.465035 5.98678 0.395422 5.9611 0.330472C5.93542 0.265522 5.89777 0.206507 5.85032 0.156796C5.80286 0.107086 5.74653 0.0676533 5.68452 0.0407501C5.62252 0.013847 5.55607 0 5.48896 0C5.42185 0 5.35539 0.013847 5.29339 0.0407501C5.23139 0.0676533 5.17505 0.107086 5.1276 0.156796L3 2.38553L0.872405 0.156796C0.82495 0.107086 0.768613 0.0676533 0.706611 0.0407501C0.644608 0.013847 0.578154 0 0.511043 0C0.443932 0 0.377478 0.013847 0.315475 0.0407501C0.253473 0.0676533 0.197136 0.107086 0.149681 0.156796C0.102226 0.206507 0.0645833 0.265522 0.038901 0.330472C0.0132187 0.395422 0 0.465035 0 0.535336C0 0.605638 0.0132187 0.67525 0.038901 0.7402C0.0645833 0.80515 0.102226 0.864165 0.149681 0.913876L2.13845 2.99719Z" fill="white"/>
</svg>