<svg width="22" height="22" viewBox="0 0 22 22" fill="none" xmlns="http://www.w3.org/2000/svg">
<g id="outline/more">
<path id="Union" fill-rule="evenodd" clip-rule="evenodd" d="M3.03002 11.8581C2.50702 11.0278 2.75305 10.0248 3.46588 9.50972C3.98878 9.13189 4.56913 9.06666 5.15657 9.31163C5.76392 9.56491 6.11905 10.0383 6.21437 10.7004C6.34886 11.6346 5.65356 12.4836 4.81567 12.6229C4.06806 12.7472 3.47576 12.4824 3.03002 11.8581ZM16.367 9.60161C16.9075 9.15344 17.5082 9.05487 18.1408 9.30004C18.7635 9.54139 19.1287 10.0248 19.2316 10.6849C19.3566 11.4865 18.8308 12.3142 18.0548 12.5684C17.2525 12.8312 16.3761 12.4837 15.9839 11.7474C15.5898 11.0073 15.7411 10.1419 16.367 9.60161ZM9.26678 11.0943C9.32476 11.9535 10.1669 12.6975 11.0843 12.6471C11.8373 12.6471 12.831 11.9417 12.7288 10.7377C12.6653 9.99021 11.9834 9.07619 10.7959 9.18843C10.0299 9.26082 9.19002 9.95686 9.26678 11.0943Z" fill="#0A0A0A"/>
</g>
</svg>
