<svg width="20" height="20" viewBox="0 0 20 20" fill="none" xmlns="http://www.w3.org/2000/svg">
<path d="M9.58268 18.125C4.87435 18.125 1.04102 14.2917 1.04102 9.58335C1.04102 4.87502 4.87435 1.04169 9.58268 1.04169C14.291 1.04169 18.1243 4.87502 18.1243 9.58335C18.1243 14.2917 14.291 18.125 9.58268 18.125ZM9.58268 2.29169C5.55768 2.29169 2.29102 5.56669 2.29102 9.58335C2.29102 13.6 5.55768 16.875 9.58268 16.875C13.6077 16.875 16.8743 13.6 16.8743 9.58335C16.8743 5.56669 13.6077 2.29169 9.58268 2.29169Z" fill="#0A0A0A"/>
<path d="M18.3334 18.9582C18.175 18.9582 18.0167 18.8999 17.8917 18.7749L14.9996 15.8834C14.7579 15.6417 14.7579 15.2417 14.9996 15C15.2413 14.7584 15.6413 14.7584 15.8829 15L18.775 17.8916C19.0167 18.1332 19.0167 18.5332 18.775 18.7749C18.65 18.8999 18.4917 18.9582 18.3334 18.9582Z" fill="#0A0A0A"/>
</svg>
